<svg xmlns="http://www.w3.org/2000/svg" width="1200" height="800" viewBox="0 0 1200 800" fill="none">
  <rect width="1200" height="800" fill="#F3F4F6"/>
  <rect x="50" y="50" width="1100" height="80" rx="8" fill="#2563EB"/>
  <rect x="80" y="82" width="200" height="16" rx="4" fill="white"/>
  <rect x="900" y="82" width="80" height="16" rx="4" fill="white"/>
  <rect x="1000" y="82" width="80" height="16" rx="4" fill="white"/>
  
  <rect x="50" y="150" width="700" height="600" rx="8" fill="white"/>
  <rect x="770" y="150" width="380" height="600" rx="8" fill="white"/>
  
  <rect x="100" y="200" width="600" height="20" rx="4" fill="#E5E7EB"/>
  <rect x="100" y="240" width="500" height="20" rx="4" fill="#E5E7EB"/>
  <rect x="100" y="280" width="550" height="20" rx="4" fill="#E5E7EB"/>
  
  <rect x="100" y="340" width="600" height="350" rx="8" fill="#EFF6FF"/>
  <rect x="150" y="380" width="500" height="40" rx="8" fill="white" stroke="#BFDBFE" stroke-width="2"/>
  <rect x="150" y="440" width="500" height="40" rx="8" fill="white" stroke="#BFDBFE" stroke-width="2"/>
  <rect x="150" y="500" width="500" height="40" rx="8" fill="white" stroke="#BFDBFE" stroke-width="2"/>
  <rect x="150" y="560" width="500" height="40" rx="8" fill="white" stroke="#BFDBFE" stroke-width="2"/>
  <rect x="150" y="620" width="200" height="40" rx="8" fill="#2563EB"/>
  <rect x="175" y="632" width="150" height="16" rx="4" fill="white"/>
  
  <rect x="820" y="200" width="280" height="20" rx="4" fill="#E5E7EB"/>
  <rect x="820" y="240" width="200" height="60" rx="8" fill="#EFF6FF"/>
  <rect x="820" y="320" width="200" height="60" rx="8" fill="#EFF6FF"/>
  <rect x="820" y="400" width="200" height="60" rx="8" fill="#EFF6FF"/>
  <rect x="820" y="480" width="200" height="60" rx="8" fill="#EFF6FF"/>
</svg> 